<?xml version="1.0" encoding="UTF-8" standalone="no"?>
<svg
   xmlns:svg="http://www.w3.org/2000/svg"
   xmlns="http://www.w3.org/2000/svg"
   xmlns:xlink="http://www.w3.org/1999/xlink"
   version="1.0"
   width="627"
   height="705"
   id="svg2">
  <defs
     id="defs4">
    <linearGradient
       id="linearGradient3213">
      <stop
         style="stop-color:#000000;stop-opacity:0"
         offset="0"
         id="stop3221" />
      <stop
         style="stop-color:#000000;stop-opacity:0.50196081"
         offset="0.5"
         id="stop3223" />
      <stop
         style="stop-color:#000000;stop-opacity:0"
         offset="1"
         id="stop3217" />
    </linearGradient>
    <linearGradient
       x1="290.65424"
       y1="380.22141"
       x2="337.19403"
       y2="380.22141"
       id="linearGradient16335"
       xlink:href="#linearGradient3213"
       gradientUnits="userSpaceOnUse" />
    <linearGradient
       x1="290.65424"
       y1="380.22141"
       x2="337.19403"
       y2="380.22141"
       id="linearGradient5530"
       xlink:href="#linearGradient3213"
       gradientUnits="userSpaceOnUse" />
    <linearGradient
       x1="290.65424"
       y1="380.22141"
       x2="337.19403"
       y2="380.22141"
       id="linearGradient5634"
       xlink:href="#linearGradient3213"
       gradientUnits="userSpaceOnUse"
       gradientTransform="translate(-4.910682,30.522225)" />
  </defs>
  <rect
     width="47.417904"
     height="491.74121"
     rx="0"
     ry="0"
     x="284.86545"
     y="159.60432"
     style="color:#000000;fill:url(#linearGradient5634);fill-opacity:1;fill-rule:nonzero;stroke:none;visibility:visible;display:inline;overflow:visible"
     id="rect2239" />
  <path
     d="M 53.044547,161.36054 L 53.044547,689.98243 M 267.69356,160.48243 L 267.69356,689.10432 M 248.18001,160.48243 L 248.18001,689.10432 M 228.66647,160.48243 L 228.66647,689.10432 M 209.15291,160.48243 L 209.15291,689.10432 M 189.63937,160.48243 L 189.63937,689.10432 M 170.12583,160.48243 L 170.12583,689.10432 M 150.61228,160.48243 L 150.61228,689.10432 M 131.09874,160.48243 L 131.09874,689.10432 M 111.58519,160.48243 L 111.58519,689.10432 M 92.071637,160.48243 L 92.071637,689.10432 M 72.558097,160.48243 L 72.558097,689.10432 M 579.91027,161.36054 L 579.91027,689.98243 M 560.39673,161.36054 L 560.39673,689.98243 M 540.88321,161.36054 L 540.88321,689.98243 M 521.36967,161.36054 L 521.36967,689.98243 M 501.85611,161.36054 L 501.85611,689.98243 M 482.34257,161.36054 L 482.34257,689.98243 M 462.82901,161.36054 L 462.82901,689.98243 M 345.74775,160.48243 L 345.74775,689.10432 M 326.23418,160.48243 L 326.23418,689.10432 M 306.72066,160.48243 L 306.72066,689.10432 M 287.20709,160.48243 L 287.20709,689.10432 M 443.31549,161.36054 L 443.31549,689.98243 M 423.80192,161.36054 L 423.80192,689.98243 M 404.28838,161.36054 L 404.28838,689.98243 M 384.77485,161.36054 L 384.77485,689.98243 M 365.26128,161.36054 L 365.26128,689.98243"
     style="opacity:0.67000002;color:#000000;fill:#000000;fill-opacity:1;fill-rule:nonzero;stroke:#666666;stroke-width:1;stroke-linecap:round;stroke-linejoin:round;marker:none;marker-start:none;marker-mid:none;marker-end:none;stroke-miterlimit:4;stroke-dasharray:1, 3;stroke-dashoffset:0;stroke-opacity:1;visibility:visible;display:inline;overflow:visible"
     id="path2245" />
  <g
     transform="translate(-47.282019,-20.013546)"
     id="g2174">
    <path
       d="M 68.119414,50.45322 C 68.119995,53.513196 65.639558,55.994105 62.579582,55.994105 C 59.519606,55.994105 57.039169,53.513196 57.03975,50.45322 C 57.039169,47.393244 59.519606,44.912335 62.579582,44.912335 C 65.639558,44.912335 68.119995,47.393244 68.119414,50.45322 z "
       transform="translate(42.013265,71.757854)"
       style="opacity:1;color:#000000;fill:#fa9a61;fill-opacity:1;fill-rule:nonzero;stroke:#a40000;stroke-width:1.20000005;stroke-linecap:round;stroke-linejoin:round;marker:none;marker-start:none;marker-mid:none;marker-end:none;stroke-miterlimit:4;stroke-dasharray:none;stroke-dashoffset:0;stroke-opacity:1;visibility:visible;display:inline;overflow:visible"
       id="path2170" />
    <path
       d="M 65.593895,38.552837 C 65.593895,39.424374 64.887375,40.130893 64.015839,40.130893 C 63.144302,40.130893 62.437782,39.424374 62.437782,38.552837 C 62.437782,37.6813 63.144302,36.97478 64.015839,36.97478 C 64.887375,36.97478 65.593895,37.6813 65.593895,38.552837 z "
       transform="translate(42.833981,86.530739)"
       style="opacity:1;color:#000000;fill:#000000;fill-opacity:1;fill-rule:nonzero;stroke:none;visibility:visible;display:inline;overflow:visible"
       id="path2172" />
  </g>
  <g
     transform="translate(-47.39768,-11.917283)"
     id="g3192">
    <path
       d="M 68.119414,50.45322 C 68.119995,53.513196 65.639558,55.994105 62.579582,55.994105 C 59.519606,55.994105 57.039169,53.513196 57.03975,50.45322 C 57.039169,47.393244 59.519606,44.912335 62.579582,44.912335 C 65.639558,44.912335 68.119995,47.393244 68.119414,50.45322 z "
       transform="matrix(1.8929927,0,0,1.8929927,10.997247,18.375918)"
       style="color:#000000;fill:#fa9a61;fill-opacity:1;fill-rule:nonzero;stroke:#a40000;stroke-width:1.32066011;stroke-linecap:round;stroke-linejoin:round;marker:none;marker-start:none;marker-mid:none;marker-end:none;stroke-miterlimit:4;stroke-dasharray:none;stroke-dashoffset:0;stroke-opacity:1;visibility:visible;display:inline;overflow:visible"
       id="path2180" />
    <path
       d="M 65.593895,38.552837 C 65.593895,39.424374 64.887375,40.130893 64.015839,40.130893 C 63.144302,40.130893 62.437782,39.424374 62.437782,38.552837 C 62.437782,37.6813 63.144302,36.97478 64.015839,36.97478 C 64.887375,36.97478 65.593895,37.6813 65.593895,38.552837 z "
       transform="matrix(2.007822,0,0,2.007822,4.9386569,41.260616)"
       style="color:#000000;fill:#000000;fill-opacity:1;fill-rule:nonzero;stroke:none;visibility:visible;display:inline;overflow:visible"
       id="path2182" />
  </g>
  <g
     transform="translate(-47.629002,-7.290848)"
     id="g3187">
    <path
       d="M 131.15945,41.470333 C 131.15945,50.572912 123.78035,57.95201 114.67777,57.95201 C 105.57519,57.95201 98.196096,50.572912 98.196096,41.470333 C 98.196096,32.367754 105.57519,24.988656 114.67777,24.988656 C 123.78035,24.988656 131.15945,32.367754 131.15945,41.470333 z "
       transform="translate(55.903662,65.017813)"
       style="opacity:1;color:#000000;fill:#860406;fill-opacity:1;fill-rule:nonzero;stroke:#f48385;stroke-width:1.20000005;stroke-linecap:round;stroke-linejoin:round;marker:none;marker-start:none;marker-mid:none;marker-end:none;stroke-miterlimit:4;stroke-dasharray:none;stroke-dashoffset:0;stroke-opacity:1;visibility:visible;display:inline;overflow:visible"
       id="path2186" />
    <path
       d="M 139.14005,29.152451 C 139.14005,32.857362 136.13663,35.860786 132.43172,35.860786 C 128.7268,35.860786 125.72338,32.857362 125.72338,29.152451 C 125.72338,25.44754 128.7268,22.444116 132.43172,22.444116 C 136.13663,22.444116 139.14005,25.44754 139.14005,29.152451 L 139.14005,29.152451 z "
       transform="translate(41.44605,82.366947)"
       style="color:#000000;fill:#ff9e6b;fill-opacity:1;fill-rule:nonzero;stroke:none;visibility:visible;display:inline;overflow:visible"
       id="path3159" />
    <path
       d="M 65.593895,38.552837 C 65.593895,39.424374 64.887375,40.130893 64.015839,40.130893 C 63.144302,40.130893 62.437782,39.424374 62.437782,38.552837 C 62.437782,37.6813 63.144302,36.97478 64.015839,36.97478 C 64.887375,36.97478 65.593895,37.6813 65.593895,38.552837 z "
       transform="matrix(2.007822,0,0,2.007822,47.195939,36.309718)"
       style="color:#000000;fill:#000000;fill-opacity:1;fill-rule:nonzero;stroke:none;visibility:visible;display:inline;overflow:visible"
       id="path3161" />
  </g>
  <g
     transform="translate(-9.229585,-50.201039)"
     id="g3179">
    <path
       d="M 207.95829,48.641312 C 207.95829,61.512678 197.52399,71.946982 184.65262,71.946982 C 171.78125,71.946982 161.34695,61.512678 161.34695,48.641312 C 161.34695,35.769946 171.78125,25.335642 184.65262,25.335642 C 197.52399,25.335642 207.95829,35.769946 207.95829,48.641312 L 207.95829,48.641312 z "
       transform="translate(3.2779553,101.79798)"
       style="opacity:1;color:#000000;fill:#780009;fill-opacity:1;fill-rule:nonzero;stroke:#ff8484;stroke-width:2.5;stroke-linecap:round;stroke-linejoin:round;marker:none;marker-start:none;marker-mid:none;marker-end:none;stroke-miterlimit:4;stroke-dasharray:none;stroke-dashoffset:0;stroke-opacity:1;visibility:visible;display:inline;overflow:visible"
       id="path3163" />
    <path
       d="M 135.20758,46.270263 C 120.86672,53.512134 121.50932,79.620146 134.8606,78.423991 C 141.49498,77.82961 138.5202,68.084882 144.04091,64.583832 C 149.56163,61.082782 160.25291,67.647012 163.08186,62.231465 C 169.1219,50.668851 149.64033,38.981987 135.20758,46.270263 z "
       transform="translate(42.833981,86.530739)"
       style="opacity:1;color:#000000;fill:#95d2ff;fill-opacity:1;fill-rule:nonzero;stroke:none;visibility:visible;display:inline;overflow:visible"
       id="path3165" />
    <path
       d="M 139.14005,29.152451 C 139.14005,32.857362 136.13663,35.860786 132.43172,35.860786 C 128.7268,35.860786 125.72338,32.857362 125.72338,29.152451 C 125.72338,25.44754 128.7268,22.444116 132.43172,22.444116 C 136.13663,22.444116 139.14005,25.44754 139.14005,29.152451 L 139.14005,29.152451 z "
       transform="translate(60.761426,133.25774)"
       style="color:#000000;fill:#ff9e6b;fill-opacity:1;fill-rule:nonzero;stroke:none;visibility:visible;display:inline;overflow:visible"
       id="path3173" />
    <path
       d="M 65.593895,38.552837 C 65.593895,39.424374 64.887375,40.130893 64.015839,40.130893 C 63.144302,40.130893 62.437782,39.424374 62.437782,38.552837 C 62.437782,37.6813 63.144302,36.97478 64.015839,36.97478 C 64.887375,36.97478 65.593895,37.6813 65.593895,38.552837 z "
       transform="matrix(2.007822,0,0,2.007822,66.511315,87.20051)"
       style="color:#000000;fill:#000000;fill-opacity:1;fill-rule:nonzero;stroke:none;visibility:visible;display:inline;overflow:visible"
       id="path3175" />
  </g>
  <g
     transform="translate(-47.744663,-34.008514)"
     id="g16209">
    <path
       d="M 207.95829,48.641312 C 207.95829,61.512678 197.52399,71.946982 184.65262,71.946982 C 171.78125,71.946982 161.34695,61.512678 161.34695,48.641312 C 161.34695,35.769946 171.78125,25.335642 184.65262,25.335642 C 197.52399,25.335642 207.95829,35.769946 207.95829,48.641312 L 207.95829,48.641312 z "
       transform="matrix(1.1719205,0,0,1.1719205,72.273025,69.262413)"
       style="color:#000000;fill:#780009;fill-opacity:1;fill-rule:nonzero;stroke:#ff8484;stroke-width:2.13325047;stroke-linecap:round;stroke-linejoin:round;marker:none;marker-start:none;marker-mid:none;marker-end:none;stroke-miterlimit:4;stroke-dasharray:none;stroke-dashoffset:0;stroke-opacity:1;visibility:visible;display:inline;overflow:visible"
       id="path3198" />
    <path
       d="M 276.27244,104.6702 C 259.4661,113.1571 260.33483,143.17531 278.41035,147.20957 C 286.02901,148.90997 283.27742,136.59655 289.74726,132.4936 C 296.2171,128.39064 308.60208,138.78845 311.48342,127.88624 C 316.30458,109.64432 293.18648,96.128923 276.27244,104.6702 z "
       style="color:#000000;fill:#95d2ff;fill-opacity:1;fill-rule:nonzero;stroke:none;visibility:visible;display:inline;overflow:visible"
       id="path3200" />
    <path
       d="M 139.14005,29.152451 C 139.14005,32.857362 136.13663,35.860786 132.43172,35.860786 C 128.7268,35.860786 125.72338,32.857362 125.72338,29.152451 C 125.72338,25.44754 128.7268,22.444116 132.43172,22.444116 C 136.13663,22.444116 139.14005,25.44754 139.14005,29.152451 L 139.14005,29.152451 z "
       transform="matrix(1.1719205,0,0,1.1719205,139.63908,106.13075)"
       style="color:#000000;fill:#ff9e6b;fill-opacity:1;fill-rule:nonzero;stroke:none;visibility:visible;display:inline;overflow:visible"
       id="path3202" />
  </g>
  <path
     d="M 252.97578,86.86195 C 252.97578,88.912684 251.31334,90.575128 249.26261,90.575128 C 247.21187,90.575128 245.54943,88.912684 245.54943,86.86195 C 245.54943,84.811217 247.21187,83.14877 249.26261,83.14877 C 251.31334,83.14877 252.97578,84.811217 252.97578,86.86195 z "
     style="color:#000000;fill:#000000;fill-opacity:1;fill-rule:nonzero;stroke:none;visibility:visible;display:inline;overflow:visible"
     id="path3204" />
  <g
     transform="translate(-47.744663,-34.008514)"
     id="g16214">
    <g
       transform="translate(-0.1156609,-0.4626436)"
       id="g4211">
      <path
         d="M 326.37439,20.097493 C 317.20727,27.722396 309.64043,14.915564 298.40511,13.769551 C 294.14887,13.335412 294.00999,21.981474 291.58111,24.988657 C 289.15223,27.99584 285.25965,31.447044 284.64146,34.125868 C 283.9475,37.133052 291.89894,40.869606 290.30884,45.576297 C 287.41732,54.135203 290.07752,55.523134 292.73772,59.108621 C 295.39792,62.694109 294.93528,65.46997 301.18097,66.510918 C 317.31909,70.163547 323.55686,66.883185 335.18527,56.795403"
         transform="translate(42.833981,86.530739)"
         style="opacity:1;color:#000000;fill:none;fill-opacity:1;fill-rule:nonzero;stroke:#ff777e;stroke-width:4;stroke-linecap:square;stroke-linejoin:round;marker:none;marker-start:none;marker-mid:none;marker-end:none;stroke-miterlimit:4;stroke-dasharray:none;stroke-dashoffset:0;stroke-opacity:1;visibility:visible;display:inline;overflow:visible"
         id="path3210" />
      <path
         d="M 370.0545,111.05812 C 360.00691,116.8591 350.12879,105.58791 341.65625,104.53125 C 339.56628,109.7548 337.88596,115.52224 333.1875,118.96875 C 330.83279,120.44575 331.8879,121.84834 333.78125,123 C 337.82513,126.92221 337.80717,132.93866 335.84375,137.78125 C 336.34148,141.84245 339.21276,146.04092 342.40625,147.9846 C 351.65086,153.61121 367.30186,148.49653 375.15444,140.27778"
         style="opacity:1;color:#000000;fill:none;fill-opacity:1;fill-rule:nonzero;stroke:#7e0002;stroke-width:4;stroke-linecap:square;stroke-linejoin:round;marker:none;marker-start:none;marker-mid:none;marker-end:none;stroke-miterlimit:4;stroke-dasharray:none;stroke-dashoffset:0;stroke-opacity:1;visibility:visible;display:inline;overflow:visible"
         id="path4199" />
      <path
         d="M 371.80891,115.00575 C 361.18753,119.66413 350.35339,111.83624 344.125,109.3125 L 343.96875,109.78125 C 342.85503,114.0056 338.19372,117.91622 336.84662,121.16559 C 341.21213,125.93451 341.19979,133.11112 340.34375,138.8125 C 342.66417,144.7959 349.06814,147.34382 355.25,146.40625 C 359.90152,145.70077 367.27795,144.83114 372.53719,137.86893"
         style="opacity:1;color:#000000;fill:none;fill-opacity:1;fill-rule:nonzero;stroke:#ffff10;stroke-width:4;stroke-linecap:square;stroke-linejoin:round;marker:none;marker-start:none;marker-mid:none;marker-end:none;stroke-miterlimit:4;stroke-dasharray:none;stroke-dashoffset:0;stroke-opacity:1;visibility:visible;display:inline;overflow:visible"
         id="path4205" />
    </g>
    <g
       transform="translate(0,14.110629)"
       id="g5189">
      <path
         d="M 346.40439,39.966743 C 346.40439,42.93706 343.99647,45.344978 341.02615,45.344978 C 338.05584,45.344978 335.64792,42.93706 335.64792,39.966743 C 335.64792,36.996426 338.05584,34.588508 341.02616,34.588508 C 343.99647,34.588508 346.40439,36.996426 346.40439,39.966743 L 346.40439,39.966743 z "
         transform="translate(43.874929,73.576719)"
         style="opacity:1;color:#000000;fill:#ff777e;fill-opacity:1;fill-rule:nonzero;stroke:#7a0000;stroke-width:1;stroke-linecap:round;stroke-linejoin:round;marker:none;marker-start:none;marker-mid:none;marker-end:none;stroke-miterlimit:4;stroke-dasharray:none;stroke-dashoffset:0;stroke-opacity:1;visibility:visible;display:inline;overflow:visible"
         id="path4216" />
      <path
         d="M 346.17305,29.904245 C 346.17437,30.545609 345.83297,31.138819 345.27775,31.459882 C 344.72253,31.780946 344.03809,31.780946 343.48287,31.459882 C 342.92765,31.138819 342.58625,30.545609 342.58757,29.904245 C 342.58625,29.262881 342.92765,28.669671 343.48287,28.348608 C 344.03809,28.027544 344.72253,28.027544 345.27775,28.348608 C 345.83297,28.669671 346.17437,29.262881 346.17305,29.904245 L 346.17305,29.904245 z "
         transform="translate(41.908694,85.489791)"
         style="opacity:1;color:#000000;fill:#000000;fill-opacity:1;fill-rule:nonzero;stroke:none;visibility:visible;display:inline;overflow:visible"
         id="path5187" />
    </g>
  </g>
  <g
     transform="translate(-47.744663,-34.008514)"
     id="g16223">
    <path
       d="M 424.16795,110.13146 C 402.12475,109.23584 396.64065,121.46623 399.99482,131.18175 C 403.34899,140.89726 418.9632,145.29238 427.40645,150.03447 C 435.8497,154.77657 441.28576,162.29453 453.89279,154.54525 C 466.49983,146.79597 478.4129,137.42743 472.5142,127.82758 C 466.61549,118.22773 461.97042,112.98725 445.91219,112.21336 C 436.31234,111.75072 428.22563,110.29807 424.16795,110.13146 z "
       style="opacity:1;color:#000000;fill:#fffa11;fill-opacity:1;fill-rule:nonzero;stroke:#820600;stroke-width:2;stroke-linecap:round;stroke-linejoin:round;marker:none;marker-start:none;marker-mid:none;marker-end:none;stroke-miterlimit:4;stroke-dasharray:none;stroke-dashoffset:0;stroke-opacity:1;visibility:visible;display:inline;overflow:visible"
       id="path5193" />
    <path
       d="M 439.31953,128.29023 C 432.14855,127.59626 418.3849,118.69037 424.16795,123.89511 C 429.95099,129.09985 442.55803,130.37212 436.77499,131.29741 C 430.99194,132.2227 421.39209,133.37931 426.59683,134.99856 C 431.80157,136.61781 437.70027,136.27083 434.92441,139.04669 C 432.14855,141.82255 432.26421,146.33333 435.96536,142.8635 C 439.66651,139.39367 442.09539,138.81537 445.56521,140.2033 C 449.03504,141.59123 455.04941,142.8635 451.2326,139.39367 C 447.41579,135.92385 444.52427,135.11422 448.34108,134.53591 C 452.15789,133.95761 455.16507,134.18893 454.00846,131.99137 C 452.85185,129.79382 452.50487,129.90948 449.84467,130.60344 C 447.18447,131.29741 445.10257,131.87571 447.87843,128.40589 C 450.65429,124.93606 449.03504,118.92169 446.02786,123.08549 C 443.02068,127.24928 443.8303,132.10704 442.09539,128.63721 C 440.36047,125.16738 437.35329,121.92888 438.39424,124.8204 C 439.43519,127.71192 439.31953,128.40589 439.31953,128.29023 z "
       style="opacity:1;color:#000000;fill:#720200;fill-opacity:1;fill-rule:nonzero;stroke:#720200;stroke-width:2;stroke-linecap:round;stroke-linejoin:round;marker:none;marker-start:none;marker-mid:none;marker-end:none;stroke-miterlimit:4;stroke-dasharray:none;stroke-dashoffset:0;stroke-opacity:1;visibility:visible;display:inline;overflow:visible"
       id="path6164" />
  </g>
  <g
     transform="translate(-47.744663,-34.008514)"
     id="g6170">
    <path
       d="M 497.95961,110.82543 C 489.04405,113.55027 484.98491,120.90501 485.35257,126.55531 C 486.40357,142.70761 512.21659,155.2567 524.67728,154.0826 C 531.97846,153.39465 540.06018,149.45617 542.02641,142.74784 C 547.98583,129.50775 543.67743,114.40314 528.1471,112.44468 C 520.62914,111.86638 502.32261,109.49198 497.95961,110.82543 z "
       style="opacity:1;color:#000000;fill:#fdff01;fill-opacity:1;fill-rule:nonzero;stroke:#780000;stroke-width:2;stroke-linecap:round;stroke-linejoin:round;marker:none;marker-start:none;marker-mid:none;marker-end:none;stroke-miterlimit:4;stroke-dasharray:none;stroke-dashoffset:0;stroke-opacity:1;visibility:visible;display:inline;overflow:visible"
       id="path6166" />
    <path
       d="M 512.18588,128.52155 C 509.1787,130.48778 509.41002,131.41307 510.79795,131.52873 C 512.18588,131.64439 509.64134,132.10704 510.91361,133.84195 C 512.18588,135.57686 511.37626,134.07327 513.68948,135.11422 C 516.00269,136.15517 516.00269,136.27083 517.27496,136.38649 C 518.54723,136.50215 519.58818,136.96479 519.47252,135.34554 C 519.35686,133.72629 519.93516,134.30459 521.78574,134.30459 C 523.63631,134.30459 525.71821,133.61063 524.09896,131.87571 C 522.4797,130.1408 522.36404,129.44683 520.97611,129.44683 C 519.58818,129.44683 519.93516,128.29023 519.12554,127.4806 C 518.31591,126.67097 517.39062,126.43965 516.81232,127.71192 C 516.23402,128.98419 515.19307,128.52155 514.84608,127.82758 C 514.4991,127.13362 512.07022,128.52155 512.18588,128.52155 z "
       style="opacity:1;color:#000000;fill:#7a0600;fill-opacity:1;fill-rule:nonzero;stroke:#780000;stroke-width:2;stroke-linecap:round;stroke-linejoin:round;marker:none;marker-start:none;marker-mid:none;marker-end:none;stroke-miterlimit:4;stroke-dasharray:none;stroke-dashoffset:0;stroke-opacity:1;visibility:visible;display:inline;overflow:visible"
       id="path6168" />
  </g>
  <g
     transform="translate(-60.814344,-6.712543)"
     id="g6182">
    <path
       d="M 586.90282,90.584775 C 575.84362,93.023619 569.57009,111.4103 579.03788,118.57471 C 584.80332,122.9375 602.86402,134.07327 608.64707,134.07327 C 622.6432,132.41445 647.7014,112.76652 631.54793,100.30029 C 619.77563,91.215172 601.72808,87.315417 586.90282,90.584775 z "
       style="opacity:1;color:#000000;fill:#7a0600;fill-opacity:1;fill-rule:nonzero;stroke:#780000;stroke-width:2;stroke-linecap:round;stroke-linejoin:round;marker:none;marker-start:none;marker-mid:none;marker-end:none;stroke-miterlimit:4;stroke-dasharray:none;stroke-dashoffset:0;stroke-opacity:1;visibility:visible;display:inline;overflow:visible"
       id="path6174" />
    <path
       d="M 593.0625,93.5 C 582.65699,92.839885 574.24424,105.89006 580.5625,114.625 C 586.5175,119.74116 593.9645,123.25535 600.78125,127.21875 C 605.38944,129.7779 610.67769,130.73035 615.375,127.875 C 623.15019,124.37 632.21999,117.99525 632.65625,108.8125 C 630.19641,100.95081 620.51884,98.589887 613.67014,95.796683 C 607.08176,93.717979 599.99443,93.247437 593.0625,93.5 z "
       style="opacity:1;color:#000000;fill:#9acdff;fill-opacity:1;fill-rule:nonzero;stroke:#ff8484;stroke-width:2;stroke-linecap:round;stroke-linejoin:round;marker:none;marker-start:none;marker-mid:none;marker-end:none;stroke-miterlimit:4;stroke-dasharray:none;stroke-dashoffset:0;stroke-opacity:1;visibility:visible;display:inline;overflow:visible"
       id="path6176" />
  </g>
  <path
     d="M 51.288323,234.24362 C 68.850512,229.85307 74.119171,234.24362 87.290811,235.99983 C 100.46245,237.75606 111.87788,239.51227 125.04952,235.99983 C 138.22116,232.48739 148.80091,218.95234 163.72877,221.58665 C 178.65663,224.22098 195.29828,232.48739 207.59181,230.73117 C 219.88534,228.97495 222.19487,217.28642 242.99475,217.23854 C 263.79464,217.19067 270.2287,227.15903 282.63758,219.35059 C 295.04647,211.54216 294.00622,202.87498 301.50708,193.63567 C 309.00794,184.39637 331.38402,190.01714 344.55567,195.2858 C 357.72731,200.55446 359.14132,215.58841 376.7035,213.83219 C 394.26569,212.07597 408.27224,208.87045 421.85051,205.266 C 435.42878,201.66155 436.1651,211.6007 452.58435,209.65655 C 469.0036,207.71241 490.44008,219.25276 513.1739,215.80331 C 535.90771,212.35387 546.63623,228.26621 561.46992,229.85307 C 576.30361,231.43993 576.6173,237.09748 581.66643,239.51227"
     style="color:#000000;fill:none;fill-opacity:1;fill-rule:nonzero;stroke:#000000;stroke-width:4;stroke-linecap:round;stroke-linejoin:round;marker:none;marker-start:none;marker-mid:none;marker-end:none;stroke-miterlimit:4;stroke-dasharray:none;stroke-dashoffset:0;stroke-opacity:1;visibility:visible;display:inline;overflow:visible"
     id="path6186" />
  <path
     d="M 52.166432,386.15655 C 72.36295,386.15655 131.19629,384.40033 165.44255,380.8879 C 199.68882,377.37545 220.76345,376.49734 235.69131,365.08193 C 250.61917,353.6665 264.66892,335.2262 270.81569,327.32322 C 276.96245,319.42023 280.47489,313.27346 287.49977,315.02968 C 294.52464,316.78591 313.84305,347.51973 330.52713,352.78839 C 347.21121,358.05705 366.52962,365.08193 378.82315,359.81327 C 391.11668,354.54461 403.41022,350.15407 418.33808,348.39785 C 433.26594,346.64162 481.56196,342.25108 498.24604,347.51973 C 514.93012,352.78839 530.73609,361.56948 550.05449,368.59436 C 569.3729,375.61924 580.78832,384.40033 580.78832,384.40033"
     style="color:#000000;fill:none;fill-opacity:1;fill-rule:nonzero;stroke:#204a87;stroke-width:4;stroke-linecap:round;stroke-linejoin:round;marker:none;marker-start:none;marker-mid:none;marker-end:none;stroke-miterlimit:4;stroke-dasharray:none;stroke-dashoffset:0;stroke-opacity:1;visibility:visible;display:inline;overflow:visible"
     id="path6188" />
  <path
     d="M 53.044542,415.13416 C 59.191308,414.25606 60.947527,409.8655 77.631607,408.98739 C 94.315686,408.10928 190.90773,410.74361 200.56693,408.98739 C 210.22614,407.23118 219.00723,401.08441 226.91022,401.08441 C 234.8132,401.08441 242.71619,401.96252 252.37539,401.08441 C 262.03459,400.2063 271.45745,395.71957 276.96245,390.5471 C 281.353,386.42176 291.0122,353.67633 291.89031,345.76351 C 292.47944,340.45477 296.28086,311.51725 298.91519,306.24859 C 301.54951,300.97994 310.33061,303.61426 312.96494,311.51725 C 315.59927,319.42023 319.11171,370.35058 321.74604,380.00978 C 324.38037,389.66899 350.72365,416.01227 356.87041,417.76849 C 363.01718,419.52472 403.41022,418.6466 416.58186,418.6466 C 429.7535,418.6466 513.1739,419.52472 529.85798,419.52472 C 546.54206,419.52472 550.9326,418.6466 558.83559,418.6466 C 566.73857,418.6466 579.03211,420.40283 579.03211,420.40283"
     style="color:#000000;fill:none;fill-opacity:1;fill-rule:nonzero;stroke:#4e9a06;stroke-width:4;stroke-linecap:round;stroke-linejoin:round;marker:none;marker-start:none;marker-mid:none;marker-end:none;stroke-miterlimit:4;stroke-dasharray:none;stroke-dashoffset:0;stroke-opacity:1;visibility:visible;display:inline;overflow:visible"
     id="path6190" />
  <text
     x="96.274765"
     y="136.84872"
     style="font-size:16px;font-style:normal;font-variant:normal;font-weight:normal;font-stretch:normal;text-indent:0;text-align:start;text-decoration:none;line-height:125%;letter-spacing:normal;word-spacing:normal;text-transform:none;direction:ltr;block-progression:tb;writing-mode:lr-tb;text-anchor:start;color:#000000;fill:#000000;fill-opacity:1;fill-rule:nonzero;stroke:none;visibility:visible;display:inline;overflow:visible;font-family:Arial"
     id="text6198"
     xml:space="preserve"><tspan
       x="96.274765"
       y="136.84872"
       id="tspan6200">Follikelreifung</tspan></text>
  <text
     x="279.14169"
     y="140.0206"
     style="font-size:16px;font-style:normal;font-variant:normal;font-weight:normal;font-stretch:normal;text-indent:0;text-align:start;text-decoration:none;line-height:125%;letter-spacing:normal;word-spacing:normal;text-transform:none;direction:ltr;block-progression:tb;writing-mode:lr-tb;text-anchor:start;color:#000000;fill:#000000;fill-opacity:1;fill-rule:nonzero;stroke:none;visibility:visible;display:inline;overflow:visible;font-family:Arial"
     id="text6202"
     xml:space="preserve"><tspan
       x="279.14169"
       y="140.0206"
       id="tspan2272">Ovulation</tspan></text>
  <text
     x="400.94537"
     y="136.84872"
     style="font-size:16px;font-style:normal;font-variant:normal;font-weight:normal;font-stretch:normal;text-indent:0;text-align:start;text-decoration:none;line-height:125%;letter-spacing:normal;word-spacing:normal;text-transform:none;direction:ltr;block-progression:tb;writing-mode:lr-tb;text-anchor:start;color:#000000;fill:#000000;fill-opacity:1;fill-rule:nonzero;stroke:none;visibility:visible;display:inline;overflow:visible;font-family:Arial"
     id="text6206"
     xml:space="preserve"><tspan
       x="400.94537"
       y="136.84872"
       id="tspan6208">Gelbkörperreifung</tspan></text>
  <text
     x="-213.71729"
     y="18.076817"
     transform="matrix(0,-1,1,0,0,0)"
     style="font-size:22px;font-style:normal;font-variant:normal;font-weight:bold;font-stretch:normal;text-indent:0;text-align:center;text-decoration:none;line-height:125%;letter-spacing:normal;word-spacing:normal;text-transform:none;direction:ltr;block-progression:tb;writing-mode:lr-tb;text-anchor:middle;color:#000000;fill:#000000;fill-opacity:1;fill-rule:nonzero;stroke:none;visibility:visible;display:inline;overflow:visible;font-family:Arial"
     id="text6210"
     xml:space="preserve"><tspan
       x="-213.71729"
       y="18.076817"
       id="tspan6212">Körper-</tspan><tspan
       x="-213.71729"
       y="45.576817"
       id="tspan6465">temperatur</tspan></text>
  <text
     x="65.7024"
     y="503.11057"
     style="font-size:22px;font-style:normal;font-variant:normal;font-weight:normal;font-stretch:normal;text-indent:0;text-align:start;text-decoration:none;line-height:125%;letter-spacing:normal;word-spacing:normal;text-transform:none;direction:ltr;block-progression:tb;writing-mode:lr-tb;text-anchor:start;color:#000000;fill:#000000;fill-opacity:1;fill-rule:nonzero;stroke:none;visibility:visible;display:inline;overflow:visible;font-family:Arial"
     id="text6214"
     xml:space="preserve"><tspan
       x="65.7024"
       y="503.11057"
       id="tspan6216">Menses</tspan></text>
  <text
     x="44.58617"
     y="33.366547"
     style="font-size:40px;font-style:normal;font-variant:normal;font-weight:bold;font-stretch:normal;text-indent:0;text-align:start;text-decoration:none;line-height:125%;letter-spacing:normal;word-spacing:normal;text-transform:none;direction:ltr;block-progression:tb;writing-mode:lr-tb;text-anchor:start;color:#000000;fill:#000000;fill-opacity:1;fill-rule:nonzero;stroke:none;visibility:visible;display:inline;overflow:visible;font-family:Arial"
     id="text6218"
     xml:space="preserve"><tspan
       x="44.58617"
       y="33.366547"
       id="tspan6220">Follikelphase</tspan></text>
  <text
     x="344.29385"
     y="35.247192"
     style="font-size:40px;font-style:normal;font-variant:normal;font-weight:bold;font-stretch:normal;text-indent:0;text-align:start;text-decoration:none;line-height:125%;letter-spacing:normal;word-spacing:normal;text-transform:none;direction:ltr;block-progression:tb;writing-mode:lr-tb;text-anchor:start;color:#000000;fill:#000000;fill-opacity:1;fill-rule:nonzero;stroke:none;visibility:visible;display:inline;overflow:visible;font-family:Arial"
     id="text6222"
     xml:space="preserve"><tspan
       x="344.29385"
       y="35.247192"
       id="tspan2432">Lutealphase</tspan></text>
  <text
     x="-657.55835"
     y="39.728184"
     transform="matrix(0,-1,1,0,0,0)"
     style="font-size:22px;font-style:normal;font-variant:normal;font-weight:bold;font-stretch:normal;text-indent:0;text-align:start;text-decoration:none;line-height:100%;letter-spacing:normal;word-spacing:normal;text-transform:none;direction:ltr;block-progression:tb;writing-mode:lr-tb;text-anchor:start;color:#000000;fill:#000000;fill-opacity:1;fill-rule:nonzero;stroke:none;visibility:visible;display:inline;overflow:visible;font-family:Arial"
     id="text6230"
     xml:space="preserve"><tspan
       x="-657.55835"
       y="39.728184"
       id="tspan6232">Uterusschleimhaut</tspan></text>
  <text
     x="-406.27853"
     y="39.733555"
     transform="matrix(0,-1,1,0,0,0)"
     style="font-size:22px;font-style:normal;font-variant:normal;font-weight:bold;font-stretch:normal;text-indent:0;text-align:start;text-decoration:none;line-height:100%;letter-spacing:normal;word-spacing:normal;text-transform:none;direction:ltr;block-progression:tb;writing-mode:lr-tb;text-anchor:start;color:#000000;fill:#000000;fill-opacity:1;fill-rule:nonzero;stroke:none;visibility:visible;display:inline;overflow:visible;font-family:Arial"
     id="text6234"
     xml:space="preserve"><tspan
       x="-406.27853"
       y="39.733555"
       id="tspan6236">Hormone</tspan></text>
  <text
     x="-149.02074"
     y="39.733555"
     transform="matrix(0,-1,1,0,0,0)"
     style="font-size:22px;font-style:normal;font-variant:normal;font-weight:bold;font-stretch:normal;text-indent:0;text-align:start;text-decoration:none;line-height:100%;letter-spacing:normal;word-spacing:normal;text-transform:none;direction:ltr;block-progression:tb;writing-mode:lr-tb;text-anchor:start;color:#000000;fill:#000000;fill-opacity:1;fill-rule:nonzero;stroke:none;visibility:visible;display:inline;overflow:visible;font-family:Arial"
     id="text6238"
     xml:space="preserve"><tspan
       x="-149.02074"
       y="39.733555"
       id="tspan6240">Eierstock</tspan></text>
  <text
     x="-530.96643"
     y="313.11038"
     transform="matrix(0,-1,1,0,0,0)"
     style="font-size:18px;font-style:normal;font-variant:normal;font-weight:normal;font-stretch:normal;text-indent:0;text-align:start;text-decoration:none;line-height:100%;letter-spacing:normal;word-spacing:normal;text-transform:none;direction:ltr;block-progression:tb;writing-mode:lr-tb;text-anchor:start;color:#000000;fill:#000000;fill-opacity:1;fill-rule:nonzero;stroke:none;visibility:visible;display:inline;overflow:visible;font-family:Arial"
     id="text6242"
     xml:space="preserve"><tspan
       x="-530.96643"
       y="313.11038"
       id="tspan6244">Ovulation</tspan></text>
  <text
     x="439.71429"
     y="387.69122"
     style="font-size:18px;font-style:normal;font-variant:normal;font-weight:normal;font-stretch:normal;text-indent:0;text-align:center;text-decoration:none;line-height:100%;letter-spacing:normal;word-spacing:normal;text-transform:none;direction:ltr;block-progression:tb;writing-mode:lr-tb;text-anchor:middle;color:#000000;fill:#a40000;fill-opacity:1;fill-rule:nonzero;stroke:none;visibility:visible;display:inline;overflow:visible;font-family:Arial"
     id="text6246"
     xml:space="preserve"><tspan
       x="439.71429"
       y="387.69122"
       id="tspan6248">follikelstimulierendes</tspan><tspan
       x="439.71429"
       y="405.69122"
       id="tspan6250">Hormon (FSH)</tspan></text>
  <text
     x="97.924225"
     y="366.92087"
     style="font-size:18px;font-style:normal;font-variant:normal;font-weight:normal;font-stretch:normal;text-indent:0;text-align:center;text-decoration:none;line-height:100%;letter-spacing:normal;word-spacing:normal;text-transform:none;direction:ltr;block-progression:tb;writing-mode:lr-tb;text-anchor:middle;color:#000000;fill:#204a87;fill-opacity:1;fill-rule:nonzero;stroke:none;visibility:visible;display:inline;overflow:visible;font-family:Arial"
     id="text6252"
     xml:space="preserve"><tspan
       x="97.924225"
       y="366.92087"
       id="tspan6254">Estradiol</tspan></text>
  <text
     x="385.83731"
     y="288.58899"
     style="font-size:18px;font-style:normal;font-variant:normal;font-weight:normal;font-stretch:normal;text-indent:0;text-align:center;text-decoration:none;line-height:100%;letter-spacing:normal;word-spacing:normal;text-transform:none;direction:ltr;block-progression:tb;writing-mode:lr-tb;text-anchor:middle;color:#000000;fill:#4e9a06;fill-opacity:1;fill-rule:nonzero;stroke:none;visibility:visible;display:inline;overflow:visible;font-family:Arial"
     id="text6256"
     xml:space="preserve"><tspan
       x="385.83731"
       y="288.58899"
       id="tspan6258">luteinisierendes</tspan><tspan
       x="385.83731"
       y="306.58899"
       id="tspan13288">Hormon (LH)</tspan></text>
  <text
     x="523.89264"
     y="318.04568"
     style="font-size:18px;font-style:normal;font-variant:normal;font-weight:normal;font-stretch:normal;text-indent:0;text-align:center;text-decoration:none;line-height:100%;letter-spacing:normal;word-spacing:normal;text-transform:none;direction:ltr;block-progression:tb;writing-mode:lr-tb;text-anchor:middle;color:#000000;fill:#000000;fill-opacity:1;fill-rule:nonzero;stroke:none;visibility:visible;display:inline;overflow:visible;font-family:Arial"
     id="text6260"
     xml:space="preserve"><tspan
       x="523.89264"
       y="318.04568"
       id="tspan6262">Progesteron</tspan></text>
  <path
     d="M 53.044542,400.2063 C 53.044542,400.2063 253.2535,403.71875 267.30325,401.08441 C 281.353,398.45009 334.03957,374.74113 342.82066,365.96004 C 351.60176,357.17894 381.45748,336.10431 403.41022,329.07943 C 425.36295,322.05456 450.82813,312.39535 467.51221,321.17645 C 484.19629,329.95754 543.02962,371.2287 551.81071,375.61924 C 560.59181,380.00978 580.78832,400.2063 580.78832,400.2063"
     style="color:#000000;fill:none;fill-opacity:1;fill-rule:nonzero;stroke:#000000;stroke-width:4;stroke-linecap:round;stroke-linejoin:round;marker:none;marker-start:none;marker-mid:none;marker-end:none;stroke-miterlimit:4;stroke-dasharray:none;stroke-dashoffset:0;stroke-opacity:1;visibility:visible;display:inline;overflow:visible"
     id="path3272" />
  <text
     x="101.35904"
     y="696.84442"
     style="font-size:24px;font-style:normal;font-variant:normal;font-weight:bold;font-stretch:normal;text-indent:0;text-align:center;text-decoration:none;line-height:100%;letter-spacing:normal;word-spacing:normal;text-transform:none;direction:ltr;block-progression:tb;writing-mode:lr-tb;text-anchor:middle;color:#000000;fill:#000000;fill-opacity:1;fill-rule:nonzero;stroke:none;visibility:visible;display:inline;overflow:visible;font-family:Arial"
     id="text6184"
     xml:space="preserve"><tspan
       x="101.35904"
       y="696.84442"
       id="tspan2434">Zyklusbeginn</tspan></text>
  <text
     x="305.41241"
     y="696.84442"
     style="font-size:24px;font-style:normal;font-variant:normal;font-weight:bold;font-stretch:normal;text-indent:0;text-align:center;text-decoration:none;line-height:100%;letter-spacing:normal;word-spacing:normal;text-transform:none;direction:ltr;block-progression:tb;writing-mode:lr-tb;text-anchor:middle;color:#000000;fill:#000000;fill-opacity:1;fill-rule:nonzero;stroke:none;visibility:visible;display:inline;overflow:visible;font-family:Arial"
     id="text6196"
     xml:space="preserve"><tspan
       x="305.41241"
       y="696.84442"
       id="tspan2438">Eisprung</tspan></text>
  <text
     x="537.22778"
     y="696.84442"
     style="font-size:24px;font-style:normal;font-variant:normal;font-weight:bold;font-stretch:normal;text-indent:0;text-align:center;text-decoration:none;line-height:100%;letter-spacing:normal;word-spacing:normal;text-transform:none;direction:ltr;block-progression:tb;writing-mode:lr-tb;text-anchor:middle;color:#000000;fill:#000000;fill-opacity:1;fill-rule:nonzero;stroke:none;visibility:visible;display:inline;overflow:visible;font-family:Arial"
     id="text6200"
     xml:space="preserve"><tspan
       x="537.22778"
       y="696.84442"
       id="tspan2436">Zyklusende</tspan></text>
  <text
     x="605.0755"
     y="217.34735"
     style="font-size:18px;font-style:normal;font-variant:normal;font-weight:normal;font-stretch:normal;text-indent:0;text-align:center;text-decoration:none;line-height:100%;letter-spacing:normal;word-spacing:normal;text-transform:none;direction:ltr;block-progression:tb;writing-mode:lr-tb;text-anchor:middle;color:#000000;fill:#000000;fill-opacity:1;fill-rule:nonzero;stroke:none;visibility:visible;display:inline;overflow:visible;font-family:Arial"
     id="text6280"
     xml:space="preserve"><tspan
       x="605.0755"
       y="217.34735"
       id="tspan2452">in °C</tspan></text>
  <g
     transform="translate(-47.744663,-56.008514)"
     id="g6493">
    <path
       d="M 63.07575,489.60874 C 63.07575,489.60874 60.773715,480.86101 65.838191,482.24223 C 70.902668,483.62345 71.823481,488.68793 74.585923,492.37118 C 77.348365,496.05444 81.492027,497.43566 82.873248,501.11892 C 84.254469,504.80217 81.952434,514.47072 86.096096,516.31234 C 90.239759,518.15397 97.145863,527.82252 100.82912,530.58496 C 104.51237,533.3474 108.19563,531.96618 110.03726,537.03066 C 111.87888,542.09513 113.72051,545.31798 118.78499,546.6992 C 123.84946,548.08042 126.1515,543.47635 128.91394,550.84286 C 131.67638,558.20937 140.42411,566.95711 140.42411,571.56118 C 140.42411,576.16525 137.20127,578.00687 143.18656,579.38809 C 149.17185,580.76931 151.93429,584.91298 156.07795,587.21501 C 160.22161,589.51705 162.52365,590.43786 167.58812,593.66071 C 172.6526,596.88356 183.24196,602.40844 183.24196,602.40844 C 183.24196,602.40844 186.0044,610.23536 183.70237,610.69577 C 181.40033,611.15617 139.5033,610.23536 131.67638,607.47292 C 123.84946,604.71047 93.0022,572.48199 88.398131,561.43222 C 83.794062,550.38246 63.07575,490.98996 63.07575,489.60874 z "
       transform="translate(42.833981,86.530739)"
       style="opacity:1;color:#000000;fill:#870303;fill-opacity:1;fill-rule:nonzero;stroke:none;visibility:visible;display:inline;overflow:visible"
       id="path6196" />
    <path
       d="M 60.3125,482.25 C 57.55006,482.71041 57.093748,493.74999 57.09375,493.75 L 57.09375,628.65625 L 585.625,628.65625 L 585.625,491.90625 C 587.00622,492.82707 583.7999,489.16035 579.65625,485.9375 C 575.51258,482.71465 575.96876,488.6752 575.96875,498.34375 C 575.96875,508.0123 574.13336,503.42931 574.59375,509.875 C 575.05416,516.3207 576.88958,514.47297 575.96875,518.15625 C 575.04794,521.8395 574.12091,523.22509 577.34375,528.75 C 580.5666,534.27488 577.35407,538.86679 572.75,545.3125 C 568.14593,551.75819 575.0355,553.59389 578.71875,560.5 C 582.40201,567.4061 576.89367,567.41263 572.75,572.9375 C 568.60634,578.46239 574.11877,585.37301 575.5,590.4375 C 576.88123,595.50197 571.37074,599.18126 567.6875,600.5625 C 564.00424,601.94372 562.63125,583.9874 561.25,579.84375 C 559.86878,575.70008 561.22921,574.777 563.53125,571.09375 C 565.83329,567.41049 561.23117,565.58113 558.46875,561.4375 C 555.70631,557.29384 561.24801,553.15197 566.3125,549.46875 C 571.37697,545.78549 566.77076,546.68736 564.46875,539.78125 C 562.16671,532.87515 563.07298,535.19781 565.375,530.59375 C 567.67704,525.98968 567.69371,523.22906 566.3125,518.625 C 564.93128,514.02094 560.31463,510.78746 562.15625,509.40625 C 563.99788,508.02503 569.98329,496.05615 569.0625,490.53125 C 568.14168,485.00637 551.10405,483.61665 546.5,483.15625 C 541.89593,482.69584 541.89792,489.1523 541.4375,499.28125 C 540.97709,509.41021 540.0417,544.86258 542.34375,547.625 C 544.64578,550.38744 542.37286,558.67094 540.53125,564.65625 C 538.68962,570.64154 544.19586,576.61466 544.65625,581.21875 C 545.11666,585.82282 540.98742,589.973 536.84375,593.65625 C 532.70009,597.33951 543.27292,598.71462 542.8125,601.9375 C 542.3521,605.16035 528.54154,601.04156 523.9375,596.4375 C 519.33343,591.83343 529.46467,585.8228 532.6875,581.21875 C 535.91035,576.61468 531.31448,579.37289 526.25,577.53125 C 521.18553,575.68962 527.62091,575.24577 530.84375,571.5625 C 534.0666,567.87925 529.47285,562.34784 526.25,559.125 C 523.02715,555.90216 528.08132,552.22286 530.84375,549 C 533.60619,545.77715 532.24573,541.63533 528.5625,537.03125 C 524.87924,532.42718 532.21875,529.64986 532.21875,524.125 C 532.21875,518.60011 530.38549,518.16654 532.6875,513.5625 C 534.98953,508.95843 535.44374,508.94781 534.0625,504.34375 C 532.68128,499.73968 531.77501,497.44781 533.15625,492.84375 C 534.53747,488.23968 533.62286,486.84163 531.78125,485 C 529.93962,483.15837 517.96027,484.09374 510.59375,484.09375 C 503.22724,484.09375 496.30811,485.46465 485.71875,488.6875 C 475.12939,491.91035 477.42917,493.73968 476.96875,498.34375 C 476.50834,502.94782 479.72922,503.88135 482.03125,509.40625 C 484.33328,514.93113 479.27913,516.31674 477.4375,520 C 475.59587,523.68325 479.2896,525.97509 479.75,531.5 C 480.21041,537.02488 479.29583,539.34179 478.375,544.40625 C 477.45419,549.47073 479.29171,549.92718 481.59375,554.53125 C 483.89579,559.13531 478.81039,561.88134 476.96875,567.40625 C 475.12712,572.93113 479.74377,574.79598 481.125,580.78125 C 482.50622,586.76654 480.18948,585.81872 475.125,584.4375 C 470.06053,583.05628 471.92703,579.39365 469.625,575.25 C 467.32297,571.10634 468.67915,566.50195 468.21875,561.4375 C 467.75834,556.37302 468.68129,556.37909 470.0625,553.15625 C 471.44372,549.93341 468.24166,541.18322 467.78125,537.5 C 467.32085,533.81674 471.92916,525.52701 471.46875,521.84375 C 471.00834,518.1605 467.78125,515.85407 467.78125,511.25 C 467.78125,506.64593 470.98542,505.7145 471.90625,502.03125 C 472.82706,498.34799 468.70814,496.5229 459.5,496.0625 C 450.29186,495.60209 437.85831,507.57508 436.9375,511.71875 C 436.01668,515.86241 439.22088,514.93552 441.0625,520 C 442.90413,525.06447 438.75835,535.19598 439.21875,542.5625 C 439.67916,549.92901 441.06673,547.15429 444.75,552.21875 C 448.43325,557.28323 443.83115,555.90215 439.6875,559.125 C 435.54384,562.34785 440.1417,571.11469 441.0625,575.71875 C 441.98331,580.32282 445.66246,578.93342 444.28125,582.15625 C 442.90003,585.3791 439.68114,585.8416 434.15625,584 C 428.63136,582.15837 430.94797,572.9416 433.25,569.71875 C 435.55204,566.49591 431.87287,563.73742 430.03125,559.59375 C 428.18963,555.45009 433.69585,551.30205 434.15625,549 C 434.61665,546.69797 430.46876,542.5437 430.46875,539.78125 C 430.46875,537.01881 434.62499,533.34783 434.625,530.125 C 434.625,526.90215 430.47496,524.12913 429.09375,520.90625 C 427.71253,517.6834 434.17915,515.38531 433.71875,510.78125 C 433.25834,506.17718 428.62499,506.18751 428.625,506.1875 C 428.625,506.1875 389.51244,520.91672 386.75,523.21875 C 383.98756,525.52079 388.11044,526.91672 389.03125,529.21875 C 389.95206,531.52079 387.65412,534.2626 385.8125,538.40625 C 383.97087,542.54992 389.95417,543.01258 390.875,547.15625 C 391.79581,551.29992 386.2708,552.22921 383.96875,554.53125 C 381.66672,556.83328 384.90215,557.75421 388.125,561.4375 C 391.34785,565.12075 385.83328,570.16475 383.53125,577.53125 C 381.22922,584.89776 383.9792,582.60636 386.28125,586.75 C 388.58328,590.89366 387.21663,589.52717 385.375,592.75 C 383.53337,595.97285 389.95829,598.27094 387.65625,602.875 C 385.35421,607.47907 376.62077,602.41869 372.9375,599.65625 C 369.25425,596.89381 376.62712,586.75411 378.46875,583.53125 C 380.31038,580.3084 376.16036,576.16658 372.9375,571.5625 C 369.71466,566.95843 372.92506,566.03538 375.6875,562.8125 C 378.44994,559.58965 377.0666,557.76245 373.84375,555 C 370.6209,552.23756 372.00834,549.91033 372.46875,546.6875 C 372.92915,543.46465 375.70207,544.86032 374.78125,538.875 C 373.86044,532.88971 376.15002,534.26034 377.53125,529.65625 C 378.91247,525.05218 375.67704,519.52292 373.375,519.0625 C 371.07297,518.60209 361.4228,528.73753 355.4375,531.5 C 349.45221,534.26244 355.44175,533.80841 359.125,537.03125 C 362.80825,540.2541 363.24789,543.02516 361.40625,551.3125 C 359.56462,559.59982 358.18127,563.27715 359.5625,566.5 C 360.94372,569.72284 361.88745,571.10425 359.125,573.40625 C 356.36256,575.70828 360.48755,587.67309 363.25,595.5 C 366.01244,603.32692 360.51032,607.4792 355.90625,609.78125 C 351.30218,612.08328 348.98119,607.01031 346.21875,602.40625 C 343.45631,597.80218 348.98543,598.27698 349.90625,594.59375 C 350.82706,590.91049 345.31039,588.14363 343.46875,584 C 341.62712,579.85634 346.21466,575.69995 349.4375,572.9375 C 352.66035,570.17506 344.39791,567.86242 343.9375,563.71875 C 343.47709,559.57509 345.76881,561.87908 348.53125,558.65625 C 351.29369,555.4334 346.67916,554.51654 346.21875,548.53125 C 345.75835,542.54596 344.85407,540.72709 340.25,541.1875 C 335.64593,541.64791 306.64368,554.52929 302.5,559.59375 C 298.35634,564.65823 305.25834,574.78762 305.71875,580.3125 C 306.17916,585.83739 305.2541,604.71462 302.03125,607.9375 C 298.8084,611.16035 293.28749,603.3395 291.90625,599.65625 C 290.52503,595.973 293.73757,592.75198 296.5,587.6875 C 299.26245,582.62303 296.48952,582.62077 294.1875,578.9375 C 291.88546,575.25425 295.12499,572.01029 295.125,567.40625 C 295.125,562.80218 289.59559,567.8814 277.625,573.40625 C 265.65442,578.93113 278.098,578.47302 281.78125,582.15625 C 285.46451,585.83951 284.08329,589.04382 281.78125,593.1875 C 279.47922,597.33116 279.93962,596.87922 281.78125,600.5625 C 283.62288,604.24575 282.22286,606.55216 279,611.15625 C 275.77715,615.76032 274.38745,609.32071 271.625,602.875 C 268.86256,596.42931 271.63334,591.82073 272.09375,585.375 C 272.55415,578.9293 271.17278,576.63334 265.1875,577.09375 C 259.20221,577.55415 254.13335,581.23558 254.59375,589.0625 C 255.05416,596.88941 256.45829,597.79595 254.15625,603.78125 C 251.85421,609.76654 245.84785,602.86866 242.625,597.34375 C 239.40215,591.81887 240.78521,590.89167 230.65625,591.8125 C 220.5273,592.73331 224.66671,593.64593 226.96875,598.25 C 229.27078,602.85407 227.45616,603.78765 223.3125,609.3125 C 219.16884,614.83738 215.9334,612.07906 219.15625,606.09375 C 222.3791,600.10846 218.68325,595.51454 215,594.59375 C 211.31674,593.67293 205.34785,597.35635 202.125,601.5 C 198.90215,605.64366 199.37076,611.625 195.6875,611.625 C 192.00424,611.625 189.67704,603.7791 187.375,601.9375 C 174.2767,603.12439 173.1147,610.43212 152.84375,594.59375 C 141.0769,582.95312 130.32167,581.14682 125.21875,562.8125 C 121.53549,556.82721 107.72482,546.71237 99.4375,541.1875 C 91.15018,535.66262 83.783218,517.68523 78.71875,508.9375 C 73.65427,500.18977 63.07494,481.7896 60.3125,482.25 z M 514.65625,552.1875 C 514.93936,552.20519 516.20382,553.15711 518.46875,555.875 C 521.05721,558.98114 519.23116,560.53714 516.125,564.9375 C 513.01885,569.33787 516.14796,569.8449 518.21875,573.46875 C 520.28951,577.09259 518.46402,580.72576 517.6875,588.75 C 516.91097,596.77422 515.09617,592.10203 508.625,590.03125 C 502.15386,587.96048 507.34846,580.44458 508.125,574.75 C 508.90154,569.0554 504.24116,563.89151 504.5,559.75 C 504.75885,555.60847 506.82835,554.83844 514.59375,552.25 C 514.59375,552.21764 514.61581,552.18497 514.65625,552.1875 z M 435.375,593.65625 C 435.89269,593.65625 435.64741,594.17042 435.90625,596.5 C 436.1651,598.82961 433.83317,599.61674 428.65625,601.6875 C 423.47934,603.75827 433.04009,603.75589 432.78125,608.15625 C 432.5224,612.55662 423.48172,605.04835 422.1875,602.71875 C 420.89327,600.38914 422.43273,596.76242 435.375,593.65625 z M 476.03125,593.90625 C 476.54894,593.64741 479.37616,595.21105 483,599.09375 C 486.62384,602.97643 483.00769,601.92926 479.125,604 C 475.24232,606.07076 475.24058,605.81836 473.6875,610.21875 C 472.13442,614.61913 465.91096,612.0525 466.6875,608.6875 C 467.46404,605.3225 471.63087,604.00125 476.03125,593.90625 z "
       transform="translate(42.833981,86.530739)"
       style="opacity:1;color:#000000;fill:#eb613d;fill-opacity:1;fill-rule:nonzero;stroke:#b84741;stroke-width:2;stroke-linecap:round;stroke-linejoin:round;marker:none;marker-start:none;marker-mid:none;marker-end:none;stroke-miterlimit:4;stroke-dasharray:none;stroke-dashoffset:0;stroke-opacity:1;visibility:visible;display:inline;overflow:visible"
       id="path6194" />
    <path
       d="M 401.72852,628.08745 C 399.65776,624.46361 399.68599,619.03674 402.24621,614.62747 C 406.90544,606.60326 400.43429,603.75595 399.65775,596.76711 C 398.88121,589.77828 405.09352,591.5902 404.83467,584.86022 C 404.57582,578.13023 396.29276,576.3183 399.65775,568.81178 C 403.02275,561.30525 405.35236,559.23449 403.2816,553.79873 C 394.17851,538.70171 402.47006,537.0498 403.79929,527.13762"
       transform="translate(42.833981,86.530739)"
       style="opacity:1;color:#000000;fill:none;fill-opacity:1;fill-rule:nonzero;stroke:#aa3b20;stroke-width:1;stroke-linecap:square;stroke-linejoin:round;marker:none;marker-start:none;marker-mid:none;marker-end:none;stroke-miterlimit:4;stroke-dasharray:none;stroke-dashoffset:0;stroke-opacity:1;visibility:visible;display:inline;overflow:visible"
       id="path6468" />
    <path
       d="M 321.7452,561.30526 C 319.19195,562.85641 316.82713,566.21254 316.82713,569.32947 C 316.82713,573.53272 321.62084,573.7366 323.55712,576.31831 C 324.47763,577.54565 320.75556,582.69796 320.19213,583.82483 C 318.84397,586.52114 318.47636,589.31239 319.67444,592.10789 C 321.71082,596.85945 324.4511,596.64967 320.45097,600.6498 C 317.53328,603.5675 317.66134,605.94206 319.41559,609.45056 C 320.99051,612.60039 317.08598,614.91774 317.08598,618.25131 C 317.08598,621.75293 316.48061,623.3976 318.63905,626.27553 C 318.85629,626.56517 319.0426,627.48617 319.15674,627.8286"
       transform="translate(42.833981,86.530739)"
       style="opacity:1;color:#000000;fill:none;fill-opacity:1;fill-rule:nonzero;stroke:#aa3b20;stroke-width:1;stroke-linecap:square;stroke-linejoin:round;marker:none;marker-start:none;marker-mid:none;marker-end:none;stroke-miterlimit:4;stroke-dasharray:none;stroke-dashoffset:0;stroke-opacity:1;visibility:visible;display:inline;overflow:visible"
       id="path6470" />
    <path
       d="M 337.27594,627.56975 C 338.87074,629.69614 335.46402,622.46237 335.46402,619.80438 C 335.46402,619.20041 335.46402,618.59644 335.46402,617.99246 C 335.46402,614.75694 338.52434,613.36293 337.79363,609.7094 C 337.18052,606.64384 333.8207,605.51564 336.49941,601.94403 C 338.43144,599.36799 339.66281,595.74088 337.79363,592.62558 C 336.27232,590.09006 331.96408,586.99845 336.75825,584.60137 C 337.38044,584.29027 337.9662,583.91111 338.57017,583.56599 C 341.86136,581.68531 343.69492,586.93098 337.53479,586.93098 C 336.57748,586.93098 337.66537,577.19335 334.68749,573.471 C 333.01758,571.38362 327.44523,568.02982 330.54595,564.9291"
       transform="translate(42.833981,86.530739)"
       style="opacity:1;color:#000000;fill:none;fill-opacity:1;fill-rule:nonzero;stroke:#aa3b20;stroke-width:1;stroke-linecap:square;stroke-linejoin:round;marker:none;marker-start:none;marker-mid:none;marker-end:none;stroke-miterlimit:4;stroke-dasharray:none;stroke-dashoffset:0;stroke-opacity:1;visibility:visible;display:inline;overflow:visible"
       id="path6472" />
    <path
       d="M 415.96503,518.59572 C 415.02371,517.41906 416.7049,521.51851 417.00042,522.99609 C 418.09173,528.45263 411.42431,531.4943 412.85889,537.23261 C 414.00268,541.80778 424.82767,540.22197 420.36541,534.64415 C 419.26193,533.26479 416.6736,544.0031 416.48273,544.48029 C 415.07315,548.00422 411.95816,551.69659 411.30581,555.61065 C 410.77636,558.78735 423.04986,568.54711 424.76579,567.51755 C 426.66841,566.37598 420.02335,559.82619 418.29465,566.74102 C 417.04004,571.75945 417.96313,577.12669 416.74157,582.01291 C 416.08523,584.63826 404.90121,585.57021 411.56466,578.90676 C 412.34597,578.12545 413.2903,577.52625 414.15312,576.836 C 417.3991,574.23921 413.63542,585.72176 413.63542,592.88443 C 413.63542,598.49191 414.84836,604.20732 416.22388,609.7094 C 417.41158,614.4602 411.8235,616.59292 411.8235,621.09861 C 411.8235,624.40176 416.48273,624.4078 416.48273,627.56975"
       transform="translate(42.833981,86.530739)"
       style="opacity:1;color:#000000;fill:none;fill-opacity:1;fill-rule:nonzero;stroke:#aa3b20;stroke-width:1;stroke-linecap:square;stroke-linejoin:round;marker:none;marker-start:none;marker-mid:none;marker-end:none;stroke-miterlimit:4;stroke-dasharray:none;stroke-dashoffset:0;stroke-opacity:1;visibility:visible;display:inline;overflow:visible"
       id="path6474" />
    <path
       d="M 450.9092,628.60514 C 450.9092,630.67949 449.5041,624.68576 449.09728,622.65169 C 448.02168,617.27367 450.46672,613.23296 453.49766,609.19171 C 457.33727,604.07222 457.79637,601.54963 454.01535,596.50827 C 451.42163,593.04997 452.49581,586.76333 453.23882,583.04829 C 454.25274,577.97868 457.97477,575.81033 456.34496,570.10601 C 454.71126,564.38804 451.45324,561.96326 452.97997,555.09296 C 454.239,549.42731 454.51114,545.47734 451.4269,540.07991 C 448.17212,534.38405 450.95178,530.90676 453.23882,524.80801 C 455.22239,519.51847 451.89719,515.13592 449.61498,510.5715 C 449.52869,510.39894 449.44241,510.22637 449.35613,510.05381"
       transform="translate(42.833981,86.530739)"
       style="opacity:1;color:#000000;fill:none;fill-opacity:1;fill-rule:nonzero;stroke:#aa3b20;stroke-width:1;stroke-linecap:square;stroke-linejoin:round;marker:none;marker-start:none;marker-mid:none;marker-end:none;stroke-miterlimit:4;stroke-dasharray:none;stroke-dashoffset:0;stroke-opacity:1;visibility:visible;display:inline;overflow:visible"
       id="path6476" />
    <path
       d="M 461.00419,511.08919 C 460.91524,510.9113 460.84689,515.80415 458.67457,520.14879 C 456.58943,524.31909 461.52188,528.78952 461.52188,533.09107 C 461.52188,537.60778 459.09455,540.48274 461.00419,545.25682 C 462.82383,549.80594 461.52188,549.95 461.52188,554.31642 C 461.52188,557.93858 463.94416,561.50975 464.62803,564.9291 C 465.12989,567.4384 462.68056,574.62969 459.45111,571.40024 C 458.86694,570.81607 460.23233,560.03912 461.78072,569.32947 C 462.49101,573.59119 462.55726,578.44253 462.55726,582.78945 C 462.55726,587.45786 458.15688,588.36367 458.15688,593.14328 C 458.15688,593.83353 458.15688,594.52379 458.15688,595.21404 C 458.15688,601.24261 464.82716,600.76922 460.74534,608.93286 C 459.09035,612.24285 458.15688,615.86511 458.15688,619.54554 C 458.15688,622.95259 459.32726,625.89283 461.52188,628.08745"
       transform="translate(42.833981,86.530739)"
       style="opacity:1;color:#000000;fill:none;fill-opacity:1;fill-rule:nonzero;stroke:#aa3b20;stroke-width:1;stroke-linecap:square;stroke-linejoin:round;marker:none;marker-start:none;marker-mid:none;marker-end:none;stroke-miterlimit:4;stroke-dasharray:none;stroke-dashoffset:0;stroke-opacity:1;visibility:visible;display:inline;overflow:visible"
       id="path6478" />
    <path
       d="M 492.06567,627.56975 C 492.66717,628.17125 490.36631,624.05468 492.58336,621.09861 C 495.45803,617.26572 496.77185,618.65905 493.3599,614.10978 C 490.72665,610.59877 491.60327,608.91829 494.39528,605.56787 C 497.50024,601.84192 496.10969,601.75743 493.3599,598.32019 C 491.1624,595.57332 490.0627,593.00769 491.80682,589.51944 C 494.23385,584.66538 489.8306,582.39108 488.70068,577.87138 C 487.78273,574.19959 491.36295,571.51046 490.77144,568.55293 C 490.06019,564.99667 486.35562,563.73402 490.5126,560.26987 C 491.03029,559.83846 491.54798,559.40705 492.06567,558.97564 C 495.03083,556.50468 491.10019,553.01273 489.9949,550.43374 C 488.0782,545.96143 495.68979,543.87668 492.84221,540.07991 C 490.89785,537.48743 489.56789,533.53787 488.70068,530.50262 C 488.07244,528.3038 496.01674,525.311 496.72489,522.4784 C 497.71733,518.50865 494.86646,513.31263 499.31335,511.08919 C 501.48318,510.00428 502.40903,507.96211 501.38411,505.91228 C 499.49679,502.13764 500.86148,501.31076 503.71373,497.88806 C 504.59913,496.82557 505.23266,496.0541 506.04334,495.04076"
       transform="translate(42.833981,86.530739)"
       style="opacity:1;color:#000000;fill:none;fill-opacity:1;fill-rule:nonzero;stroke:#aa3b20;stroke-width:1;stroke-linecap:square;stroke-linejoin:round;marker:none;marker-start:none;marker-mid:none;marker-end:none;stroke-miterlimit:4;stroke-dasharray:none;stroke-dashoffset:0;stroke-opacity:1;visibility:visible;display:inline;overflow:visible"
       id="path6480" />
    <path
       d="M 523.12715,494.78191 C 523.57601,494.24328 518.98562,497.86892 518.98562,503.06497 C 518.98562,506.40737 521.4453,507.72291 519.76216,511.08919 C 518.92597,512.76156 511.73361,513.85599 509.92602,516.2661 C 506.12861,521.32933 510.0563,522.9978 512.25563,527.39647 C 514.57629,532.03778 513.91735,535.64332 508.37295,537.49145 C 505.21753,538.54326 502.8272,540.98256 501.90181,544.22144 C 499.6823,551.98971 503.67235,547.36896 497.50143,553.53988 C 497.46395,553.57736 496.00954,562.73595 494.91297,564.9291 C 493.62783,567.49937 495.05835,571.98176 495.68951,574.50639 C 496.7414,578.71393 500.11213,581.05135 498.27797,585.63675 C 496.38913,590.35884 497.85611,592.70225 501.64296,595.73173 C 502.02409,596.03664 502.33322,596.42199 502.67834,596.76712 C 504.62693,598.7157 502.08172,602.25977 501.64296,604.0148 C 501.01114,606.54208 503.21361,611.29762 504.23142,613.33324 C 505.62927,616.12894 505.90674,617.24611 502.93719,619.02785 C 499.04447,621.36348 500.31084,624.48674 502.16065,627.56975"
       transform="translate(42.833981,86.530739)"
       style="opacity:1;color:#000000;fill:none;fill-opacity:1;fill-rule:nonzero;stroke:#aa3b20;stroke-width:1;stroke-linecap:square;stroke-linejoin:round;marker:none;marker-start:none;marker-mid:none;marker-end:none;stroke-miterlimit:4;stroke-dasharray:none;stroke-dashoffset:0;stroke-opacity:1;visibility:visible;display:inline;overflow:visible"
       id="path6482" />
  </g>
  <path
     d="M 580.78832,182.43516 L 51.288323,182.43516"
     style="color:#000000;fill:none;fill-opacity:1;fill-rule:nonzero;stroke:#656565;stroke-width:1;stroke-linecap:round;stroke-linejoin:round;marker:none;marker-start:none;marker-mid:none;marker-end:none;stroke-miterlimit:4;stroke-dasharray:none;stroke-dashoffset:0;stroke-opacity:1;visibility:visible;display:inline;overflow:visible"
     id="path13290" />
  <path
     d="M 580.78832,246.43517 L 51.288323,246.43517"
     style="color:#000000;fill:none;fill-opacity:1;fill-rule:nonzero;stroke:#656565;stroke-width:1;stroke-linecap:round;stroke-linejoin:round;marker:none;marker-start:none;marker-mid:none;marker-end:none;stroke-miterlimit:4;stroke-dasharray:none;stroke-dashoffset:0;stroke-opacity:1;visibility:visible;display:inline;overflow:visible"
     id="path14261" />
  <text
     x="104.8047"
     y="58.745735"
     style="font-size:18px;font-style:normal;font-variant:normal;font-weight:normal;font-stretch:normal;text-indent:0;text-align:start;text-decoration:none;line-height:125%;letter-spacing:normal;word-spacing:normal;text-transform:none;direction:ltr;block-progression:tb;writing-mode:lr-tb;text-anchor:start;color:#000000;fill:#000000;fill-opacity:1;fill-rule:nonzero;stroke:none;visibility:visible;display:inline;overflow:visible;font-family:Arial"
     id="text2440"
     xml:space="preserve"><tspan
       x="104.8047"
       y="58.745735"
       id="tspan2444">Dauer variabel</tspan></text>
  <text
     x="384.78226"
     y="58.515434"
     style="font-size:18px;font-style:normal;font-variant:normal;font-weight:normal;font-stretch:normal;text-indent:0;text-align:start;text-decoration:none;line-height:125%;letter-spacing:normal;word-spacing:normal;text-transform:none;direction:ltr;block-progression:tb;writing-mode:lr-tb;text-anchor:start;color:#000000;fill:#000000;fill-opacity:1;fill-rule:nonzero;stroke:none;visibility:visible;display:inline;overflow:visible;font-family:Arial"
     id="text2446"
     xml:space="preserve"><tspan
       x="384.78226"
       y="58.515434"
       id="tspan2450">Dauer 12–16 Tage</tspan></text>
  <path
     d="M 51.288323,416.01227 C 71.607235,422.41872 90.763504,410.45479 110.99977,411.62172 C 116.32413,411.92875 131.17926,419.65551 137.34305,417.76849 C 169.42296,407.94743 198.58541,423.63378 229.54454,420.40283 C 237.85132,419.53591 254.49705,415.13416 265.54703,415.13416 C 276.08434,415.13416 279.55861,414.14427 287.49976,404.59684 C 297.3277,392.78098 291.09142,375.21765 301.54953,375.61924 C 312.51786,376.04042 308.85559,412.31248 319.98981,412.49984 C 336.22799,412.77308 348.54227,407.82407 358.62663,412.49984 C 369.72257,417.64464 388.48235,415.13416 403.41022,415.13416 C 418.33808,415.13416 443.78457,417.47452 458.73111,417.76849 C 499.0388,418.56127 539.68625,421.1205 579.91022,417.76849"
     style="color:#000000;fill:none;fill-opacity:1;fill-rule:nonzero;stroke:#a40000;stroke-width:4;stroke-linecap:round;stroke-linejoin:round;marker:none;marker-start:none;marker-mid:none;marker-end:none;stroke-miterlimit:4;stroke-dasharray:none;stroke-dashoffset:0;stroke-opacity:1;visibility:visible;display:inline;overflow:visible"
     id="path2266" />
</svg>